<svg t="1613545058022" class="icon" viewBox="0 0 1024 1024" version="1.1" xmlns="http://www.w3.org/2000/svg" p-id="6652" width="200" height="200"><path d="M988.8 512c0-265.6-214.4-480-476.8-480S35.2 246.4 35.2 512 249.6 992 512 992h294.4c51.2 0 41.6-19.2 41.6-137.6 86.4-86.4 140.8-208 140.8-342.4zM809.6 812.8l-16 16v105.6H512C278.4 934.4 89.6 745.6 89.6 512 89.6 278.4 278.4 89.6 512 89.6s422.4 192 422.4 425.6c0 112-44.8 217.6-124.8 297.6z" p-id="6653"></path><path d="M256 515.2a57.6 57.6 0 1 0 115.2 0 57.6 57.6 0 1 0-115.2 0zM454.4 515.2a57.6 57.6 0 1 0 115.2 0 57.6 57.6 0 1 0-115.2 0zM652.8 515.2a57.6 57.6 0 1 0 115.2 0 57.6 57.6 0 1 0-115.2 0z" p-id="6654"></path></svg>