<svg t="1613542605058" class="icon" viewBox="0 0 1024 1024" version="1.1" xmlns="http://www.w3.org/2000/svg" p-id="2539" width="200" height="200"><path d="M900.3 228.3H123.7C90.9 228.3 64 255.2 64 288v388.3c0 32.8 26.9 59.7 59.7 59.7h328.5v29.9h-59.7c-29.9 0-29.9 29.9-29.9 29.9h298.7c0-29.9-29.9-29.9-29.9-29.9h-59.7V736h328.5c32.9 0 59.7-26.9 59.7-59.7V288c0.1-32.8-26.8-59.7-59.6-59.7m29.8 448c0 16.5-13.4 29.9-29.9 29.9H123.7c-16.5 0-29.9-13.4-29.9-29.9V288c0-16.5 13.4-29.9 29.9-29.9h776.5c16.5 0 29.9 13.4 29.9 29.9v388.3z" p-id="2540"></path></svg>